<?xml version="1.0" encoding="UTF-8"?>
<svg width="293px" height="69px" viewBox="0 0 293 69" version="1.1" xmlns="http://www.w3.org/2000/svg" xmlns:xlink="http://www.w3.org/1999/xlink">
    <!-- Generator: Sketch 44.1 (41455) - http://www.bohemiancoding.com/sketch -->
    <title>源力DataForce 互道企业数据智能</title>
    <desc>Created with Sketch.</desc>
    <defs></defs>
    <g id="Page-1" stroke="none" stroke-width="1" fill="none" fill-rule="evenodd">
        <path d="M25.2693994,6.63414431 C25.1762738,7.38127251 25.0365876,8.03499988 24.8503365,8.59534603 L31.9744059,8.59534603 L31.9744059,17.4207538 C32.0675315,20.8762217 30.5309828,22.5572349 27.3647139,22.4638439 L26.3869005,22.4638439 L26.3869005,28.6276207 C26.480026,31.8029156 24.8969153,33.3438444 21.6375209,33.2504533 L18.5643929,33.2504533 L18.5643929,29.7483074 L19.5422063,29.7483074 C20.659713,29.8416984 21.1718959,29.2813607 21.0787703,28.0672774 L21.0787703,22.4638439 L15.3515772,22.4638439 L15.3515772,8.59534603 L19.1231434,8.59534603 C19.3093945,8.03499988 19.4490808,7.38127251 19.5422063,6.63414431 L25.2693994,6.63414431 Z M33.091907,6.2138868 L14.3737638,6.2138868 L14.3737638,22.1836722 C14.6531405,27.3201786 12.3715985,31.1024584 7.52906962,33.530625 L7.52906962,29.7483074 C8.64657629,27.8804869 9.15875917,25.7325256 9.06563361,23.3043589 L9.06563361,2.15139753 L33.091907,2.15139753 L33.091907,6.2138868 Z M5.99250562,32.69011 L0.405000181,32.69011 C2.26751131,27.8337767 3.29187706,23.1642955 3.47812817,18.6815263 L8.2275078,18.6815263 C7.94813113,23.6312506 7.20313785,28.3007318 5.99250562,32.69011 Z M5.71313035,1.73114002 C6.83063702,3.97252462 7.52906822,6.26057041 7.80844489,8.59534603 L2.64000236,8.59534603 C2.45375124,6.91430758 1.84844421,4.62626179 0.824063089,1.73114002 L5.71313035,1.73114002 Z M6.27188089,10.1362902 C7.01688534,11.7239377 7.66875446,13.9652886 8.2275078,16.8604104 L3.05906527,16.8604104 C2.59343748,14.2454617 1.98813045,12.0041107 1.243126,10.1362902 L6.27188089,10.1362902 Z M16.3293907,23.4444447 L20.5200198,23.4444447 C20.4268942,27.7404319 18.1453523,30.5888154 13.6753256,31.9896808 L13.6753256,29.0478782 C15.1653345,27.6470128 16.050014,25.7792204 16.3293907,23.4444447 Z M30.8569048,23.4444447 C31.1362815,25.9660024 31.9278369,27.7871001 33.2315946,28.9077924 L33.2315946,31.9896808 C28.9478191,30.5888154 26.8059634,27.7404319 26.8059634,23.4444447 L30.8569048,23.4444447 Z M25.409087,18.8216121 C26.5265937,18.8216121 27.0387766,18.3079692 26.945651,17.2806679 L26.945651,17.1405821 L20.3803321,17.1405821 L20.3803321,18.8216121 L25.409087,18.8216121 Z M26.945651,12.2375778 L20.3803321,12.2375778 L20.3803321,13.9186078 L26.945651,13.9186078 L26.945651,12.2375778 Z M46.0828572,5.37337178 L46.0828572,0.890625 L52.648176,0.890625 L52.648176,5.37337178 L67.4550655,5.37337178 L67.4550655,26.3862473 C67.548191,30.6822345 65.4528974,32.783501 61.1691218,32.69011 L55.4419288,32.69011 L55.4419288,28.7677065 L58.794432,28.7677065 C60.1913154,28.7677065 60.8897466,27.9738947 60.8897466,26.3862473 L60.8897466,9.71603273 L52.3688008,9.71603273 C52.2756752,20.8295647 47.0141602,28.7676827 36.5840979,33.530625 L36.5840979,29.1879641 C42.6372591,25.17215 45.7569184,18.6815711 45.9431695,9.71603273 L37.2825361,9.71603273 L37.2825361,5.37337178 L46.0828572,5.37337178 Z M82.9603931,32.4099383 L73.1822585,32.4099383 L73.1822585,2.29148337 L82.5413301,2.29148337 C93.8095225,2.10470132 99.3504099,7.05435139 99.1641588,17.1405821 C99.7229122,27.7871589 94.3217109,32.8768934 82.9603931,32.4099383 Z M82.4016425,6.49405848 L79.8872651,6.49405848 L79.8872651,28.4875349 L82.4016425,28.4875349 C89.2929337,28.6743169 92.5988413,24.8920371 92.3194647,17.1405821 C92.5988413,9.94947316 89.2929337,6.40066745 82.4016425,6.49405848 Z M124.726996,32.9702817 L111.456671,32.9702817 C105.496635,32.8768906 102.423538,30.7756241 102.237287,26.666419 C101.771659,21.2497395 105.58975,18.6815249 113.691673,18.961698 L118.301365,18.961698 C118.208239,16.2533582 116.625129,14.8525139 113.551985,14.7591229 C111.130721,14.8525139 109.454486,15.7864101 108.52323,17.5608396 L102.516662,17.5608396 C103.82042,12.8912883 107.498824,10.5098529 113.551985,10.4164619 C121.188281,10.2296799 124.913247,13.3582323 124.726996,19.802213 L124.726996,32.9702817 Z M118.441053,23.1642731 L113.691673,23.1642731 C110.152902,23.070882 108.476667,24.0514731 108.662918,26.1060756 C108.569793,27.9738961 110.152903,28.9077924 113.412298,28.9077924 L118.441053,28.9077924 L118.441053,23.1642731 Z M127.381061,15.3194662 L127.381061,11.1168911 L131.152627,11.1168911 L131.152627,2.15139753 L137.717946,2.15139753 L137.717946,11.1168911 L142.607014,11.1168911 L142.607014,15.3194662 L137.717946,15.3194662 L137.717946,25.5457323 C137.624821,27.7871169 138.5095,28.8144028 140.372011,28.6276207 C141.210141,28.5342297 142.094821,28.207366 143.026077,27.6470198 L143.026077,31.2892516 C141.629193,32.4099439 139.952958,32.9702817 137.997322,32.9702817 C133.341044,33.0636727 131.059502,30.8223217 131.152627,26.2461615 L131.152627,15.3194662 L127.381061,15.3194662 Z M167.890476,32.9702817 L154.62015,32.9702817 C148.660115,32.8768906 145.587017,30.7756241 145.400766,26.666419 C144.935139,21.2497395 148.753229,18.6815249 156.855153,18.961698 L161.464844,18.961698 C161.371719,16.2533582 159.788608,14.8525139 156.715465,14.7591229 C154.2942,14.8525139 152.617966,15.7864101 151.68671,17.5608396 L145.680142,17.5608396 C146.983899,12.8912883 150.662304,10.5098529 156.715465,10.4164619 C164.35176,10.2296799 168.076727,13.3582323 167.890476,19.802213 L167.890476,32.9702817 Z M161.604532,23.1642731 L156.855153,23.1642731 C153.316381,23.070882 151.640146,24.0514731 151.826398,26.1060756 C151.733272,27.9738961 153.316383,28.9077924 156.575777,28.9077924 L161.604532,28.9077924 L161.604532,23.1642731 Z M194.012064,6.49405848 L178.925799,6.49405848 L178.925799,15.459552 L193.173938,15.459552 L193.173938,19.802213 L178.925799,19.802213 L178.925799,32.4099383 L172.36048,32.4099383 L172.36048,2.29148337 L194.012064,2.29148337 L194.012064,6.49405848 Z M220.273339,21.9035005 C219.993963,29.0012184 216.082748,32.6901086 208.539578,32.9702817 C201.089533,32.5967176 197.178319,28.9078274 196.805816,21.9035005 C197.178319,14.5256096 201.136095,10.696635 208.679265,10.4164619 C216.12931,10.603244 219.993963,14.4322185 220.273339,21.9035005 Z M213.568333,21.9035005 C213.475207,17.2339493 211.798972,14.8525139 208.539578,14.7591229 C205.280183,14.7591229 203.650511,17.1405583 203.650511,21.9035005 C203.743636,26.4796608 205.373309,28.8144014 208.539578,28.9077924 C211.892098,28.9077924 213.568333,26.5730518 213.568333,21.9035005 Z M239.829608,10.5565477 L239.829608,14.8992087 L234.38179,14.8992087 C231.681149,14.8058177 230.377411,15.973188 230.470537,18.4013546 L230.470537,32.8301958 L223.905218,32.8301958 L223.905218,18.4013546 C223.905218,13.1714572 226.605818,10.5565477 232.007101,10.5565477 L239.829608,10.5565477 Z M265.392446,18.2612688 L258.827127,18.2612688 C257.988997,15.9264932 256.359324,14.7591229 253.93806,14.7591229 C250.492414,14.9459049 248.723055,17.3740351 248.629929,22.0435864 C248.629929,26.7131376 251.051157,29.0478782 255.893686,29.0478782 C258.96683,29.0478782 262.133051,27.4602546 265.392446,24.2849598 L265.392446,29.0478782 C262.78493,31.7562179 259.059964,33.1103675 254.217435,33.1103675 C246.488014,32.7368034 242.343989,28.9545236 241.785235,21.7634147 C242.064612,14.4789148 246.115513,10.7433298 253.93806,10.5565477 C259.991221,10.5565477 263.809311,13.1247624 265.392446,18.2612688 Z M292.212472,23.7246164 L275.449955,23.7246164 C276.101834,27.0866933 278.523063,28.8610962 282.713713,29.0478782 C286.066233,29.0478782 289.13933,27.6470339 291.933097,24.8453031 L291.933097,29.3280499 C289.418706,31.8496076 285.879988,33.1103675 281.316836,33.1103675 C273.308038,32.8301944 269.117451,29.1879991 268.744949,22.1836722 C268.9312,14.6189992 272.795853,10.7433298 280.339023,10.5565477 C288.440946,10.3697657 292.398723,14.759078 292.212472,23.7246164 Z M275.589643,19.5220413 L285.786841,19.5220413 C285.693715,16.4401375 283.970918,14.8525139 280.618398,14.7591229 C277.731506,14.7591229 276.055271,16.3467465 275.589643,19.5220413 Z M14.7695454,66.3457323 L15.2468115,62.5634147 L3.10562781,62.5634147 L5.35227062,49.7338868 L0.777500544,49.7338868 L0.777500544,48.2513117 L21.0787703,48.2513117 L21.0787703,49.7338868 L7.57563216,49.7338868 L6.98195971,53.1076207 L18.5411116,53.1076207 L17.0045476,66.3457323 L21.7306459,66.3457323 L21.7306459,67.8283074 L0.21875,67.8283074 L0.21875,66.3457323 L14.7695454,66.3457323 Z M15.4214211,61.1275349 L16.2479062,54.5435005 L6.73750635,54.5435005 L5.59672399,61.1275349 L15.4214211,61.1275349 Z M41.7059779,52.9908825 L42.4044161,51.0763761 L36.036988,51.0763761 L36.036988,49.593801 L51.274581,49.593801 L51.274581,51.0763761 L44.4764493,51.0763761 L43.8362143,52.9908825 L49.738017,52.9908825 L49.738017,65.1783503 L37.4804269,65.1783503 L37.4804269,52.9908825 L41.7059779,52.9908825 Z M39.5990227,63.7424705 L47.6194211,63.7424705 L47.6194211,54.4267623 L39.5990227,54.4267623 L39.5990227,56.6447881 L46.664889,56.6447881 L47.1305144,57.9172344 L39.5990227,57.9172344 L39.5990227,60.1235864 L46.664889,60.1235864 L47.1305144,61.3960327 L39.5990227,61.3960327 L39.5990227,63.7424705 Z M32.4633126,64.419552 L32.4633126,55.7108825 L29.7976069,55.7108825 L29.7976069,54.2283074 L34.5819085,54.2283074 L34.5819085,64.6413546 C34.7603991,64.7736586 35.1949785,65.1472171 35.8856597,65.7620413 C36.6151432,66.4079959 37.6007073,66.7309683 38.8423814,66.7309683 L51.8333315,66.7309683 L51.8333315,68.2135435 L39.0868347,68.2135435 C37.5192212,68.2135435 36.3668097,67.9878519 35.6295657,67.5364619 C35.264824,67.3185495 34.8030833,66.9410998 34.24433,66.4041014 C33.9416719,66.1083631 33.6817003,65.9604962 33.4644074,65.9604962 C33.2083121,65.9604962 33.0143034,66.0655596 32.8823756,66.2756894 C32.6573221,66.6259057 32.4788342,67.3068717 32.3469063,68.3186078 L29.8092476,68.3186078 C30.4456055,66.7076127 31.039272,65.5947196 31.5902649,64.9798954 C31.8153183,64.7308527 32.1063313,64.5440734 32.4633126,64.419552 Z M31.3108896,47.5392087 L32.8241724,47.5392087 C33.8640744,49.2202471 34.6401091,50.9207165 35.1522996,52.6406679 L32.7659692,52.6406679 C32.5486762,50.912934 32.1800598,49.4887422 31.6601087,48.3680499 C31.497139,48.010051 31.3807338,47.7337733 31.3108896,47.5392087 Z M48.2945781,46.9788653 C48.209213,47.6948632 47.9841629,48.4497627 47.6194211,49.2435864 L44.9420748,49.2435864 C45.6017141,48.6598925 46.1682195,47.904993 46.6416077,46.9788653 L48.2945781,46.9788653 Z M38.6561312,46.9905392 L40.3323828,46.9905392 C40.8600943,47.5586679 41.3761573,48.3096761 41.8805874,49.2435864 L39.3894913,49.2435864 C39.2420425,48.4264149 38.9975915,47.6754067 38.6561312,46.9905392 Z M70.6213185,49.1501958 C68.3785447,52.8469239 64.7079008,55.5902441 59.6092766,57.3802387 L59.6092766,56.0260756 C62.0926247,54.8898182 64.1413562,53.5667985 65.7555326,52.0569769 C67.1756973,50.7339374 68.378551,49.0295768 69.3641298,46.9438439 L71.7853822,46.9438439 L71.7970228,46.9321701 C72.7282784,48.8466861 73.88457,50.4848957 75.2659324,51.8468482 C76.8723483,53.4344956 78.9870427,54.8275575 81.6100792,56.0260756 L81.6100792,57.3802387 C78.1411523,56.1038947 75.3008654,54.3878604 73.0891334,52.2320842 C72.2510034,51.4149128 71.4284067,50.3876269 70.6213185,49.1501958 Z M63.4739678,66.6609254 L63.4739678,56.9366336 L65.6973294,56.9366336 L65.6973294,66.6609254 L70.1091305,66.6609254 L70.1091305,53.1776636 L72.3324921,53.1776636 L72.3324921,58.0573203 L79.0374986,58.0573203 L79.0374986,59.5398954 L72.9028833,59.5398954 L72.3324921,58.2207538 L72.3324921,66.6609254 L81.3074227,66.6609254 L81.3074227,68.1435005 L59.8537299,68.1435005 L59.8537299,66.6609254 L63.4739678,66.6609254 Z M96.3354842,66.2173203 L96.3354842,47.1773203 L98.5006426,47.1773203 L98.5006426,66.2173203 L102.272209,66.2173203 L102.272209,47.1773203 L104.437367,47.1773203 L104.437367,66.2173203 L110.932842,66.2173203 L110.932842,67.6998954 L89.7119621,67.6998954 L89.7119621,66.2173203 L96.3354842,66.2173203 Z M109.989951,51.403243 C109.47776,55.0844059 108.81425,58.4347587 107.999402,61.4544018 L105.368618,61.4544018 C106.819825,58.0611946 107.848071,54.7108418 108.453387,51.403243 L109.989951,51.403243 Z M90.7130569,51.4265907 L92.1914177,51.4265907 C93.4253313,54.2983647 94.492379,57.640935 95.3925927,61.4544018 L92.7501682,61.4544018 C92.4319892,58.6215407 92.0711331,56.4268846 91.667589,54.8703675 C91.5977449,54.597977 91.4425379,54.0298568 91.2019636,53.1659898 C91.0933171,52.7768605 90.9303498,52.1970666 90.7130569,51.4265907 Z M124.261371,54.4034147 C122.926571,55.710889 121.300779,56.7420661 119.383944,57.4969769 L119.383944,56.3996379 C120.858432,55.5591187 122.014724,54.668026 122.852854,53.7263332 C123.147751,53.3994646 123.446525,53.0064499 123.749183,52.5472774 L119.48871,52.5472774 L119.48871,51.0647023 L124.261371,51.0647023 L124.261371,47.0489083 L126.158794,47.0489083 L126.158794,51.0647023 L130.721924,51.0647023 L130.721924,52.5472774 L126.158794,52.5472774 L126.158794,53.3410971 L127.334499,53.3410971 C128.52185,54.5785282 129.42205,55.68753 130.035126,56.6681357 L127.916531,56.6564619 C127.458663,55.7225517 127.000803,54.9365223 126.542935,54.2983503 C126.341163,54.0103947 126.213118,53.8158329 126.158794,53.7146593 L126.158794,57.2868482 L124.261371,57.2868482 L124.261371,54.4034147 Z M134.237396,50.6327709 L140.884199,50.6327709 L140.884199,52.115346 L139.568808,52.115346 C139.483442,54.0376446 139.301074,55.753679 139.021698,57.2635005 C138.594872,59.5126677 137.857639,61.4582849 136.809977,63.1004104 C137.446335,63.9798426 138.071043,64.7308508 138.684119,65.3534576 C139.266154,65.9371515 140.092631,66.6336825 141.163575,67.4430714 L141.163575,68.890625 C139.448512,67.8633237 138.171935,66.9566661 137.333805,66.170625 C136.852657,65.719235 136.336594,65.1588973 135.785601,64.489595 C135.537266,64.769768 135.327737,65.0032421 135.157006,65.1900241 C134.000697,66.4041075 132.374905,67.6376287 130.27958,68.890625 L130.27958,67.4547452 C131.443649,66.6453563 132.390411,65.859327 133.119895,65.0966336 C133.632086,64.5674178 134.17143,63.8942342 134.737943,63.0770628 C133.938616,61.7929362 133.317788,60.5555237 132.875442,59.3647881 C132.557263,58.5164863 132.246849,57.4697442 131.944191,56.2245306 C131.439761,56.9950065 130.799532,57.7966008 130.023486,58.6293374 L130.023486,56.8082216 C130.690886,55.6875293 131.218589,54.5007028 131.606612,53.2477065 C132.002396,51.9713625 132.32833,49.8973346 132.584426,47.0255606 L134.749584,47.0255606 C134.609896,48.3408176 134.439168,49.543209 134.237396,50.6327709 Z M133.876536,52.115346 C133.558357,53.1192995 133.228543,53.9598062 132.887082,54.6368911 L133.597161,54.6368911 C134.070549,57.2518398 134.780621,59.4815171 135.727398,61.3259898 C136.363756,59.9017767 136.806095,58.4347813 137.05443,56.9249598 C137.2174,55.9677018 137.353206,54.5902048 137.461852,52.7924276 L137.508415,52.115346 L133.876536,52.115346 Z M124.028558,65.4235005 C122.786884,64.8164589 121.57627,64.2444474 120.39668,63.707449 C121.149444,62.6178871 121.754751,61.6800996 122.212619,60.8940585 L119.418866,60.8940585 L119.418866,59.4581786 L122.96926,59.4581786 C123.155511,59.0846145 123.392202,58.543733 123.679339,57.8355177 L126.088951,57.8355177 C125.669886,58.6137762 125.367232,59.1546578 125.180981,59.4581786 L130.151533,59.4581786 L130.151533,60.859037 C129.6083,61.9719467 129.045675,62.8863868 128.46364,63.6023847 C128.083378,64.0693398 127.590596,64.5790915 126.98528,65.131655 C127.807889,65.4663062 128.72749,65.8671034 129.74411,66.3340585 L129.74411,68.4703675 C128.774053,67.9333691 127.392711,67.1862521 125.600044,66.2289941 C124.110035,67.2874257 122.041903,68.1746271 119.395585,68.890625 L119.395585,67.6648739 C121.203773,67.0578323 122.748082,66.3107153 124.028558,65.4235005 Z M125.227544,64.4428997 C126.17432,63.5556849 127.090041,62.3727497 127.974734,60.8940585 L124.214808,60.8940585 C123.640534,61.6800996 123.011946,62.4933676 122.329025,63.3338868 L123.621136,63.8241872 L124.459262,64.1510542 L124.843403,64.3028138 L125.227544,64.4428997 Z M120.187148,47.5275349 L121.409415,47.5275349 C122.278587,48.4458799 122.996419,49.4186885 123.562933,50.4459898 L121.525821,50.4459898 C121.285247,49.6677313 120.839027,48.6949227 120.187148,47.5275349 Z M130.046767,47.5158611 C129.876037,48.5587275 129.519061,49.5432098 128.975828,50.4693374 L126.764108,50.4576636 C127.617759,49.4537101 128.281268,48.4731191 128.754656,47.5158611 L130.046767,47.5158611 Z M158.880623,58.1040156 C158.810779,60.835703 158.60513,62.8085588 158.263669,64.0226422 C157.77476,65.7892891 156.742634,67.3691302 155.16726,68.762213 L155.16726,67.1979211 C155.726014,66.3340542 156.106271,65.5207862 156.308043,64.7580928 C156.564138,63.7385741 156.719345,62.6529197 156.773668,61.5010971 C156.843512,60.0846666 156.878434,58.5048254 156.878434,56.7615263 L156.878434,47.8077065 L169.97415,47.8077065 L169.97415,53.738007 L158.892264,53.738007 L158.892264,56.6681357 L163.618362,56.6681357 L163.618362,54.1932859 L165.736958,54.1932859 L165.736958,56.6681357 L170.800635,56.6681357 L170.800635,58.1040156 L165.736958,58.1040156 L165.736958,60.9407538 L169.846103,60.9407538 L169.846103,68.3769769 L159.672186,68.3769769 L159.672186,60.9407538 L163.618362,60.9407538 L163.618362,58.1040156 L158.880623,58.1040156 Z M158.892264,52.2554319 L167.96032,52.2554319 L167.96032,49.2902817 L158.892264,49.2902817 L158.892264,52.2554319 Z M161.686017,66.9410971 L167.832273,66.9410971 L167.832273,62.3766336 L161.686017,62.3766336 L161.686017,66.9410971 Z M151.86132,60.0768911 L148.881317,61.1158611 L148.881317,58.8044447 L151.86132,58.1857323 L151.86132,52.570625 L149.102489,52.570625 L149.102489,51.0880499 L151.86132,51.0880499 L151.86132,46.9671915 L153.87515,46.9671915 L153.87515,51.0880499 L156.203277,51.0880499 L156.203277,52.570625 L153.87515,52.570625 L153.87515,57.7771486 L156.168355,57.3101958 L156.168355,58.594316 L153.87515,59.3881357 L153.87515,66.7309683 C153.87515,67.4547488 153.704422,67.9606093 153.362962,68.2485649 C153.060304,68.4976076 152.567522,68.6221271 151.884601,68.6221271 L149.637958,68.6221271 L149.253817,67.139552 L151.86132,67.139552 L151.86132,60.0768911 Z M185.980025,50.0957752 L185.980025,50.8312259 C185.980025,51.3993546 185.933463,51.971366 185.840337,52.5472774 L190.10081,52.5472774 L190.10081,53.9831572 L186.340884,53.9831572 L186.468931,54.0998954 C187.865815,55.290631 189.064788,56.5319347 190.065888,57.8238439 L187.528229,57.8238439 C186.775464,56.6642387 185.995549,55.5863667 185.188461,54.5901958 C184.296008,56.2401039 182.321,57.6759694 179.263377,58.8978353 L179.263377,57.6720842 C180.365363,57.1195207 181.19184,56.6019865 181.742833,56.1194662 C182.503358,55.4501639 183.042702,54.738068 183.360881,53.9831572 L179.240096,53.9831572 L179.240096,52.5472774 L183.745022,52.5472774 C183.830388,51.8312795 183.873069,51.2125732 183.873069,50.69114 L183.873069,50.0957752 L182.138615,50.0957752 C181.595382,50.7339472 180.710703,51.3954571 179.48455,52.0803246 L179.48455,50.7028138 C180.089866,50.1424677 180.532205,49.5976949 180.811582,49.0684791 C181.090959,48.5548284 181.316009,47.850515 181.486739,46.9555177 L183.663538,46.9555177 C183.438485,47.6948633 183.228955,48.2629835 183.034944,48.6598954 L189.460575,48.6598954 L189.460575,50.0957752 L185.980025,50.0957752 Z M181.801036,68.2602387 L181.801036,58.337492 L197.434411,58.337492 L197.434411,68.2602387 L181.801036,68.2602387 Z M183.919632,63.9525992 L183.919632,66.8243589 L195.315815,66.8243589 L195.315815,59.7733718 L183.919632,59.7733718 L183.919632,62.5750885 L194.279798,62.5750885 L194.745424,63.9525992 L183.919632,63.9525992 Z M190.671201,57.2284791 L190.671201,48.3447023 L199.413319,48.3447023 L199.413319,57.2284791 L190.671201,57.2284791 Z M192.685031,55.7925992 L197.399489,55.7925992 L197.399489,49.8272774 L192.685031,49.8272774 L192.685031,55.7925992 Z M228.002722,55.3373203 L228.002722,52.3721701 L229.958349,52.8391229 L229.958349,55.0104533 C229.958349,55.6486253 229.814782,56.1116822 229.527645,56.3996379 C229.240508,56.679811 228.794288,56.8198954 228.188972,56.8198954 L222.601467,56.8198954 C221.926306,56.8198954 221.433524,56.664246 221.123106,56.3529426 C220.812687,56.0416392 220.65748,55.5513437 220.65748,54.8820413 L220.65748,47.002213 L222.776076,47.002213 L222.776076,50.9129426 C222.970088,50.8351167 223.082613,50.7923132 223.113655,50.7845306 C224.71231,50.1619237 226.05873,49.1268554 227.152955,47.6792945 L229.644051,47.6792945 C229.11634,48.4809008 228.588636,49.1229545 228.060925,49.6054748 C226.865814,50.6950367 225.104215,51.5822382 222.776076,52.2671057 L222.776076,55.3373203 L228.002722,55.3373203 Z M212.043409,58.7344018 L215.989585,58.7344018 L216.466851,60.1702817 L212.043409,60.1702817 L212.043409,62.6217838 L215.989585,62.6217838 L216.466851,64.0576636 L212.043409,64.0576636 L212.043409,68.8556035 L209.924814,68.8556035 L209.924814,54.8937151 L218.969588,54.8937151 L218.969588,66.9527709 C218.969588,68.0189851 218.465165,68.5520842 217.456305,68.5520842 L214.511224,68.5520842 L214.057239,67.0695091 L216.850992,67.0695091 L216.850992,56.3762902 L212.043409,56.3762902 L212.043409,58.7344018 Z M222.764435,62.0147452 C224.572623,61.3376602 226.05485,60.2364409 227.211158,58.7110542 L229.702255,58.7110542 C229.166783,59.5282257 228.631319,60.181953 228.095847,60.6722559 C226.900736,61.7696004 225.123616,62.6723668 222.764435,63.3805821 L222.764435,66.882728 L228.223894,66.882728 L228.223894,63.6607538 L230.179521,64.1277065 L230.179521,66.5558611 C230.179521,67.1940331 230.035954,67.6570899 229.748817,67.9450456 C229.46168,68.2252187 229.01546,68.3653031 228.410144,68.3653031 L222.589826,68.3653031 C221.914666,68.3653031 221.421884,68.2096537 221.111465,67.8983503 C220.801047,67.5948295 220.64584,67.1006427 220.64584,66.4157752 L220.64584,57.9522559 L222.764435,57.9522559 L222.764435,62.0147452 Z M217.421383,52.8507967 L209.203094,53.7847023 L209.203094,51.9052173 C210.654301,50.55883 211.868795,48.9245116 212.846613,47.002213 L215.314428,47.002213 C214.212442,48.823338 212.838861,50.4498739 211.193643,51.8818696 L217.083805,51.6950885 C216.796668,50.8390041 216.369849,49.8817605 215.803335,48.8233289 L217.235133,48.8233289 C218.399203,50.2786723 219.326564,51.8857521 220.017245,53.6446164 L217.607634,53.6446164 C217.537789,53.333313 217.475707,53.0687091 217.421383,52.8507967 Z M239.643358,53.4228138 L248.781258,53.4228138 L248.781258,49.3603246 L239.189373,49.3603246 L239.189373,47.8777495 L250.946416,47.8777495 L250.946416,54.9053889 L241.633907,54.9053889 L241.342891,59.1546593 L251.249073,59.1546593 L251.249073,60.2053031 L251.086104,66.7076207 C251.070583,67.3691405 250.907615,67.8438711 250.597197,68.1318267 C250.31782,68.388652 249.801757,68.5170628 249.048992,68.5170628 L241.936563,68.5170628 L241.575704,67.0344877 L248.886023,67.0344877 L249.072274,60.6372344 L239.13117,60.6372344 L239.643358,53.4228138 Z M255.882046,68.890625 L255.882046,46.9555177 L258.105407,46.9555177 L258.105407,68.890625 L255.882046,68.890625 Z M272.06253,51.2047881 L279.244803,51.2047881 L279.244803,56.586419 C279.244803,57.4891989 278.814104,57.9405821 277.952692,57.9405821 L275.34519,57.9405821 L275.042533,56.9366336 L270.141825,56.9366336 L270.141825,53.866419 C269.738281,54.1932876 269.171776,54.531825 268.442292,54.8820413 L268.442292,53.8197237 C269.047609,53.2827253 269.517109,52.6367804 269.850809,51.8818696 C270.0293,51.4693926 270.196147,50.9557497 270.351357,50.3409254 L271.399014,50.3292516 L271.399014,49.5471057 L268.640183,49.5471057 L268.640183,48.3797237 L271.399014,48.3797237 L271.399014,46.9438439 L273.249875,46.9438439 L273.249875,48.3797237 L275.461596,48.3797237 L275.461596,46.9438439 L277.312457,46.9438439 L277.312457,48.3797237 L280.024726,48.3797237 L280.024726,49.5471057 L277.312457,49.5471057 L277.312457,50.6444447 L275.461596,50.6444447 L275.461596,49.5471057 L273.249875,49.5471057 L273.249875,50.6444447 L272.260421,50.6444447 C272.190577,50.8701397 272.124614,51.056919 272.06253,51.2047881 Z M271.492139,52.3721701 C271.259325,52.730169 270.991593,53.0648151 270.688935,53.3761186 L276.020347,53.3761186 L276.020347,56.6798095 L277.452145,56.6798095 L277.452145,52.3721701 L271.492139,52.3721701 Z M274.43722,54.4851314 L271.724952,54.4851314 L271.724952,55.8276207 L274.43722,55.8276207 L274.43722,54.4851314 Z M281.398321,52.1620413 C280.948214,52.5122577 280.393349,52.86636 279.73371,53.2243589 L279.73371,52.0686508 C280.41663,51.4226962 280.921053,50.77286 281.246992,50.1191229 C281.650536,49.3019514 281.972591,48.2513181 282.213165,46.9671915 L284.250277,46.9671915 C284.087307,47.7610152 283.912699,48.4147426 283.726448,48.9283932 L289.709735,48.9283932 L289.709735,50.3642731 L288.371062,50.3642731 C287.820069,52.3332672 286.966431,53.8664135 285.810122,54.963758 C286.772419,55.734234 288.072277,56.3996351 289.709735,56.9599812 L289.709735,58.0573203 C288.413738,57.7148865 287.373851,57.3646754 286.590044,57.0066765 C286.000249,56.7420686 285.35226,56.3724013 284.646058,55.8976636 C283.862251,56.434662 283.035774,56.8782627 282.166603,57.2284791 C281.62337,57.4541741 280.851216,57.7265605 279.850116,58.0456465 L279.850116,56.971655 C281.26252,56.4268741 282.465374,55.7575818 283.458713,54.963758 C282.612823,54.1854995 281.926032,53.2516033 281.398321,52.1620413 Z M282.050196,51.5900241 L283.156057,51.5900241 C283.598403,52.4616737 284.087305,53.2087907 284.622777,53.8313975 C285.398823,52.9364002 285.980849,51.7807036 286.368872,50.3642731 L283.02801,50.3642731 C282.771914,50.7767501 282.44598,51.1853297 282.050196,51.5900241 Z M278.045817,64.1977495 L278.045817,62.61011 L269.792606,62.61011 L269.792606,61.3376636 L278.045817,61.3376636 L278.045817,59.7500241 L270.549248,59.7500241 L270.549248,58.5359469 L284.68098,58.5359469 C285.115566,58.5359469 285.414339,58.454231 285.577309,58.2907967 C285.639393,58.2363186 285.701476,58.1546027 285.763559,58.0456465 L287.800671,58.0456465 C287.61442,58.6137752 287.39713,59.0184636 287.148795,59.2597237 C286.815095,59.5865923 286.291272,59.7500241 285.577309,59.7500241 L280.257538,59.7500241 L280.257538,61.3376636 L288.359421,61.3376636 L288.359421,62.61011 L280.257538,62.61011 L280.257538,64.1977495 L289.814501,64.1977495 L289.814501,65.4701958 L280.257538,65.4701958 L280.257538,66.9060756 C280.257538,67.6998994 280.013087,68.2329985 279.524178,68.5053889 C279.198239,68.6843884 278.682176,68.7738868 277.975974,68.7738868 L274.739877,68.7738868 L274.402298,67.5014405 L278.045817,67.5014405 L278.045817,65.4701958 L268.419011,65.4701958 L268.419011,64.1977495 L278.045817,64.1977495 Z" id="源力DataForce-互道企业数据智能" fill="#FFFFFF"></path>
    </g>
</svg>