<?xml version="1.0" encoding="UTF-8"?>
<svg width="48px" height="48px" viewBox="0 0 48 48" version="1.1" xmlns="http://www.w3.org/2000/svg" xmlns:xlink="http://www.w3.org/1999/xlink">
    <!-- Generator: Sketch 39 (31667) - http://www.bohemiancoding.com/sketch -->
    <title>Slice 1</title>
    <desc>Created with Sketch.</desc>
    <defs></defs>
    <g id="Page-1" stroke="none" stroke-width="1" fill="none" fill-rule="evenodd">
        <g id="选项-copy-8" transform="translate(19.000000, 4.000000)" fill="#FFFFFF">
            <g id="Group-6">
                <path d="M10,36.1764706 C10,38.8405081 7.76157341,41 5.00015887,41 C2.23874432,41 0,38.8405081 0,36.1764706 C0,33.5124331 2.23874432,31.3529412 5.00015887,31.3529412 C7.76157341,31.3529412 10,33.5124331 10,36.1764706" id="Fill-3"></path>
                <path d="M10,20.5 C10,23.1640375 7.76157341,25.3235294 5.00015887,25.3235294 C2.23874432,25.3235294 0,23.1640375 0,20.5 C0,17.8359625 2.23874432,15.6764706 5.00015887,15.6764706 C7.76157341,15.6764706 10,17.8359625 10,20.5" id="Fill-3-Copy"></path>
                <path d="M10,4.82352941 C10,7.48756691 7.76157341,9.64705882 5.00015887,9.64705882 C2.23874432,9.64705882 0,7.48756691 0,4.82352941 C0,2.15949191 2.23874432,0 5.00015887,0 C7.76157341,0 10,2.15949191 10,4.82352941" id="Fill-3-Copy-2"></path>
            </g>
        </g>
    </g>
</svg>