<?xml version="1.0" encoding="UTF-8"?>
<svg width="48px" height="48px" viewBox="0 0 48 48" version="1.1" xmlns="http://www.w3.org/2000/svg" xmlns:xlink="http://www.w3.org/1999/xlink">
    <!-- Generator: Sketch 39 (31667) - http://www.bohemiancoding.com/sketch -->
    <title>Slice 1</title>
    <desc>Created with Sketch.</desc>
    <defs></defs>
    <g id="Page-1" stroke="none" stroke-width="1" fill="none" fill-rule="evenodd">
        <path d="M44.6406796,48 L43.8941868,48 C42.6087777,47.8140154 41.7289116,47.01226 40.8688833,46.1417711 C39.4225063,44.6781531 37.9360419,43.2526754 36.4701704,41.8074537 C36.374482,41.7131137 36.3103694,41.587911 36.2682912,41.5286789 C36.1377322,41.5488273 36.1094513,41.5459971 36.0900253,41.55752 C35.983766,41.6205931 35.880115,41.6879114 35.7748852,41.7526017 C29.5039341,45.6063241 22.7839204,46.6014092 15.798876,44.2166282 C7.11354414,41.2513192 1.98144924,35.1267651 0.290497244,26.2466738 C0.15170108,25.5177624 0.0948646333,24.7736892 0,24.0366241 L0,21.3984728 C0.0203869789,21.3039306 0.052786446,21.2102645 0.0593075934,21.1148463 C0.174147337,19.4392328 0.486953592,17.7991989 0.974524921,16.1905668 C3.50319627,7.84652896 10.7826505,1.60876687 19.5480888,0.281672351 C20.2949934,0.168599085 21.0478013,0.0930597001 21.7977949,0 L24.4852375,0 C24.5931443,0.0206874184 24.7003647,0.0464961344 24.8091639,0.0611862395 C25.8060664,0.195890305 26.8156678,0.270014618 27.7985671,0.470756692 C44.3640482,3.8541941 51.7564889,22.817212 41.747102,36.2273089 C41.6766743,36.3216489 41.6102965,36.4189539 41.5168734,36.5501539 C41.6461968,36.6599926 41.7554078,36.7417989 41.8516453,36.8362063 C43.5065597,38.4583829 45.1570123,40.0848723 46.815153,41.7038818 C47.3589429,42.2349487 47.7283109,42.8547627 47.9002617,43.5885259 C47.9302587,43.7162892 47.9666395,43.8426375 48,43.9695248 L48,44.7023446 C47.9774164,44.7704041 47.9459779,44.8369138 47.9334163,44.9067255 C47.692548,46.2434562 46.9365138,47.1838914 45.6646961,47.7084893 C45.3391909,47.8426543 44.982865,47.9047166 44.6406796,48 L44.6406796,48 Z M23.1794414,5.42906608 C13.3827105,5.4232035 5.43357503,13.2092201 5.41806172,22.8260396 C5.40254841,32.4562014 13.3529195,40.2761804 23.1618688,40.2788758 C32.9298383,40.2816387 40.8927024,32.4825492 40.9075293,22.8985466 C40.9224248,13.2597594 32.981801,5.43499603 23.1794414,5.42906608 L23.1794414,5.42906608 Z" id="Shape-Copy-11" fill="#BBBBBB"></path>
    </g>
</svg>