<?xml version="1.0" encoding="UTF-8"?>
<svg width="48px" height="48px" viewBox="0 0 48 48" version="1.1" xmlns="http://www.w3.org/2000/svg" xmlns:xlink="http://www.w3.org/1999/xlink">
    <!-- Generator: Sketch 39 (31667) - http://www.bohemiancoding.com/sketch -->
    <title>Slice 1</title>
    <desc>Created with Sketch.</desc>
    <defs></defs>
    <g id="Page-1" stroke="none" stroke-width="1" fill="none" fill-rule="evenodd">
        <path d="M23.9532632,0.163410219 C10.7242105,0.163410219 0,10.8721051 0,24.0817051 C0,37.2913051 10.7242105,48 23.9532632,48 C37.1821754,48 47.9065263,37.2913051 47.9065263,24.0817051 C47.9065263,10.8721051 37.1821754,0.163410219 23.9532632,0.163410219 Z M23.9532632,45.6081285 C12.0470175,45.6081285 2.39536842,35.9702891 2.39536842,24.0817051 C2.39536842,12.192981 12.0470175,2.55528175 23.9532632,2.55528175 C35.8592281,2.55528175 45.5111579,12.192981 45.5111579,24.0817051 C45.5111579,35.9702891 35.8592281,45.6081285 23.9532632,45.6081285 Z M10.7789474,24.0817051 L10.7789474,24.0817051 C10.7789474,31.3470131 16.6773333,37.2367883 23.9532632,37.2367883 C31.229193,37.2367883 37.1275789,31.3470131 37.1275789,24.0817051 C37.1275789,16.8163971 31.229193,10.9266219 23.9532632,10.9266219 C16.6773333,10.9266219 10.7789474,16.8163971 10.7789474,24.0817051 L10.7789474,24.0817051 Z" id="单选-copy-7" fill="#2196F3"></path>
    </g>
</svg>