<?xml version="1.0" encoding="UTF-8" standalone="no"?>
<svg width="248px" height="248px" viewBox="0 0 248 248" version="1.1" xmlns="http://www.w3.org/2000/svg" xmlns:xlink="http://www.w3.org/1999/xlink">
    <!-- Generator: Sketch 42 (36781) - http://www.bohemiancoding.com/sketch -->
    <title>Combined Shape</title>
    <desc>Created with Sketch.</desc>
    <defs>
        <path d="M1138.56447,690.358054 C1134.45666,674.911495 1124.08942,659.721877 1123.63414,659.059166 C1121.47667,655.920224 1117.18311,655.128603 1114.04504,657.286956 C1111.12115,659.298527 1110.23636,663.16229 1111.87409,666.217734 L1111.84714,666.230332 C1111.97341,666.4152 1112.09353,666.60329 1112.21746,666.788744 C1112.23621,666.817748 1112.25262,666.848218 1112.27283,666.876929 C1112.27694,666.886012 1112.31473,666.939919 1112.37479,667.030742 C1112.65341,667.447353 1112.92851,667.869238 1113.2001,668.291416 C1113.97883,669.50375 1115.17798,671.430944 1116.54881,673.841841 C1116.72812,674.160306 1116.91005,674.476133 1117.08525,674.796942 C1119.9822,679.996968 1123.44869,687.089324 1125.26308,694.00648 C1125.52852,694.853473 1125.78575,695.703689 1126.03185,696.558592 C1126.5677,698.428949 1127.06342,700.316298 1127.50142,702.227672 C1133.85313,729.873153 1129.05712,758.336915 1113.99934,782.377037 C1098.94185,806.415987 1075.42352,823.152811 1047.77687,829.503059 C1020.13227,835.854187 991.667038,831.05876 967.627502,816.000395 C943.589431,800.942615 926.852022,777.425748 920.50148,749.779095 C914.151232,722.132442 918.94783,693.668093 934.00561,669.628557 C949.063389,645.589607 972.581429,628.852198 1000.22691,622.502535 C1016.42788,618.780865 1032.90952,618.893367 1048.61742,622.64873 C1058.99491,625.131992 1069.03401,629.203183 1078.43092,634.819234 C1079.08044,635.208013 1079.73085,635.601186 1080.37481,636.0052 L1080.39268,635.975609 C1083.57938,637.760124 1087.63826,636.754046 1089.59798,633.625358 C1091.62039,630.397645 1090.6439,626.142173 1087.41472,624.120933 C1087.27468,624.033333 1086.50035,623.552853 1085.23411,622.818363 C1029.39411,589.643258 956.984574,606.963396 922.318516,662.305922 C887.140336,718.464679 904.148162,792.50843 960.307797,827.686024 C1016.46773,862.864204 1090.51089,845.855792 1125.68907,789.696156 C1145.01463,758.843177 1148.58131,722.595343 1138.56447,690.358054 Z M984.840118,768.819879 C982.147965,766.126553 981.931456,761.975088 984.359638,759.547198 L1018.6041,725.302439 L984.359638,691.057973 C981.932334,688.62979 982.147379,684.478617 984.839532,681.786463 C987.531686,679.093724 991.683738,678.877801 994.111628,681.305983 L1028.35609,715.550449 L1062.60144,681.305983 C1065.02874,678.87868 1069.18079,679.093724 1071.87295,681.786463 C1074.56569,684.479203 1074.78103,688.630669 1072.35343,691.057973 L1038.10838,725.303318 L1072.35284,759.547784 C1074.78103,761.975967 1074.56422,766.127139 1071.87236,768.819879 C1069.18021,771.512033 1065.02874,771.727956 1062.60085,769.299773 L1028.35697,735.055307 L994.112214,769.299773 C991.684324,771.727956 987.533151,771.512619 984.840118,768.819879 Z" id="path-1"></path>
        <filter x="-50%" y="-50%" width="200%" height="200%" filterUnits="objectBoundingBox" id="filter-2">
            <feOffset dx="0" dy="2" in="SourceAlpha" result="shadowOffsetOuter1"></feOffset>
            <feGaussianBlur stdDeviation="2" in="shadowOffsetOuter1" result="shadowBlurOuter1"></feGaussianBlur>
            <feColorMatrix values="0 0 0 0 0   0 0 0 0 0   0 0 0 0 0  0 0 0 0.5 0" type="matrix" in="shadowBlurOuter1"></feColorMatrix>
        </filter>
    </defs>
    <g id="Page-1" stroke="none" stroke-width="1" fill="none" fill-rule="evenodd">
        <g id="Group-208" transform="translate(-900.000000, -604.000000)">
            <g id="Combined-Shape">
                <use fill="black" fill-opacity="1" filter="url(#filter-2)" xlink:href="#path-1"></use>
                <use fill="#FF6666" fill-rule="evenodd" xlink:href="#path-1"></use>
            </g>
        </g>
    </g>
</svg>