<?xml version="1.0" encoding="UTF-8" standalone="no"?>
<svg width="48px" height="48px" viewBox="0 0 48 48" version="1.1" xmlns="http://www.w3.org/2000/svg" xmlns:xlink="http://www.w3.org/1999/xlink">
    <!-- Generator: Sketch 42 (36781) - http://www.bohemiancoding.com/sketch -->
    <title>筛选</title>
    <desc>Created with Sketch.</desc>
    <defs></defs>
    <g id="Page-1" stroke="none" stroke-width="1" fill="none" fill-rule="evenodd">
        <g id="Group-100" transform="translate(-2130.000000, -2046.000000)" fill="#2196F3">
            <g id="Group-83" transform="translate(176.000000, 1998.000000)">
                <g id="Group-3" transform="translate(1863.000000, 48.000000)">
                    <path d="M120.08732,48 C119.768715,48 119.448861,47.9195252 119.165045,47.7584332 L108.863247,41.9244392 C108.307724,41.6093769 107.967394,41.0352997 107.967394,40.4157151 L107.967394,26.3708012 L91.3164577,2.8980178 C90.936421,2.36246884 90.8956137,1.66703858 91.2106229,1.09410089 C91.5257054,0.520023739 92.1425862,0.160664688 92.817155,0.160664688 L137.054586,0.160664688 C137.729155,0.160664688 138.34721,0.520023739 138.662293,1.09410089 C138.976127,1.66703858 138.936494,2.36246884 138.555283,2.8980178 L121.904348,26.3708012 L121.904348,46.2497804 C121.904348,46.8775549 121.555577,47.4574006 120.990439,47.7689733 C120.709045,47.9230148 120.397632,48 120.08732,48 Z M111.603724,39.4146231 L118.269192,43.1892463 L118.269192,25.8305519 C118.269192,25.4781721 118.378623,25.1339822 118.586623,24.8434184 L133.611797,3.66110386 L96.2611183,3.66110386 L111.286293,24.8434184 C111.493118,25.1339822 111.603724,25.4781721 111.603724,25.8305519 L111.603724,39.4146231 L111.603724,39.4146231 Z" id="筛选"></path>
                </g>
            </g>
        </g>
    </g>
</svg>