<?xml version="1.0" encoding="UTF-8"?>
<svg width="48px" height="48px" viewBox="0 0 48 48" version="1.1" xmlns="http://www.w3.org/2000/svg" xmlns:xlink="http://www.w3.org/1999/xlink">
    <!-- Generator: Sketch 39 (31667) - http://www.bohemiancoding.com/sketch -->
    <title>Slice 1</title>
    <desc>Created with Sketch.</desc>
    <defs></defs>
    <g id="Page-1" stroke="none" stroke-width="1" fill="none" fill-rule="evenodd">
        <path d="M2.18182242,17.4545327 C0.872710219,17.4545327 0,16.5818224 0,15.2727103 L0,6.54546731 C0,3.05453269 3.05453269,0 6.54546731,0 L15.2727102,0 C16.5818224,0 17.4545326,0.872710266 17.4545326,2.18182242 C17.4545326,3.49093462 16.5818224,4.36364484 15.2727102,4.36364484 L6.54546731,4.36364489 C5.23635511,4.36364489 4.36364489,5.23635516 4.36364489,6.54546731 L4.36364489,15.2727102 C4.36364489,16.5818224 3.49093463,17.4545327 2.18182242,17.4545327 L2.18182242,17.4545327 Z M15.2727103,48 L6.54546731,48 C3.05453269,48 0,44.9454673 0,41.4545795 L0,32.7272429 C0,31.4181775 0.872710266,30.5454205 2.18182242,30.5454205 C3.49093463,30.5454205 4.36359802,31.4181776 4.36359802,32.7272429 L4.36359802,41.4545326 C4.36359802,42.763598 5.23630828,43.6363082 6.54542044,43.6363082 L15.2726633,43.6363082 C16.5817755,43.6363082 17.4544858,44.5090653 17.4544858,45.8181775 C17.4544858,47.1272896 16.5818224,48 15.2727103,48 L15.2727103,48 Z M41.4545327,48 L32.7272429,48 C31.4181775,48 30.5454205,47.1272897 30.5454205,45.8181776 C30.5454205,44.5090654 31.4181776,43.6363083 32.7272429,43.6363083 L41.4544858,43.6363083 C42.763598,43.6363083 43.6363551,42.7635981 43.6363551,41.4545327 L43.6363551,32.7272429 C43.6363551,31.4181775 44.5090654,30.5454205 45.8181775,30.5454205 C47.1272897,30.5454205 48,31.4181776 48,32.7272429 L48,41.4545326 C48,44.9454673 44.9454673,48 41.4545327,48 L41.4545327,48 Z M45.8181776,17.4545327 C44.5090654,17.4545327 43.6363552,16.5818224 43.6363552,15.2727103 L43.6363551,6.54546731 C43.6363551,5.23635511 42.763598,4.36364489 41.4544859,4.36364489 L32.7272429,4.36364489 C31.4181775,4.36364489 30.5454205,3.49093463 30.5454205,2.18182247 C30.5454205,0.872710266 31.4181776,4.68753569e-08 32.7272429,4.68753569e-08 L41.4544858,4.68753569e-08 C44.9454673,4.68753569e-08 47.9999531,3.05453273 47.9999531,6.54546736 L47.9999531,15.2727103 C48,16.5818224 47.1272897,17.4545327 45.8181776,17.4545327 L45.8181776,17.4545327 Z M45.8181776,26.1818224 L2.18182242,26.1818224 C0.872710266,26.1818224 0,25.3090654 0,24 C0,22.6908878 0.872710266,21.8181776 2.18182242,21.8181776 L45.8181775,21.8181776 C47.1272897,21.8181776 48,22.6908878 48,24 C48,25.3090654 47.1272897,26.1818224 45.8181776,26.1818224 L45.8181776,26.1818224 Z" id="Shape" fill="#1296DB"></path>
    </g>
</svg>