<?xml version="1.0" encoding="UTF-8"?>
<svg width="48px" height="48px" viewBox="0 0 48 48" version="1.1" xmlns="http://www.w3.org/2000/svg" xmlns:xlink="http://www.w3.org/1999/xlink">
    <!-- Generator: Sketch 39 (31667) - http://www.bohemiancoding.com/sketch -->
    <title>Slice 1</title>
    <desc>Created with Sketch.</desc>
    <defs></defs>
    <g id="Page-1" stroke="none" stroke-width="1" fill="none" fill-rule="evenodd">
        <g id="Group-14-Copy" transform="translate(3.000000, 2.000000)" fill="#4F5666">
            <path d="M38.6372854,3.88720244 L36.7141463,3.88720244 L36.7141463,3.36271463 C36.7141463,1.61443902 35.3154951,0.0409756098 33.3924073,0.0409756098 C31.6440805,0.0409756098 30.0706171,1.43962683 30.0706171,3.36271463 L30.0706171,3.88720244 L11.8884073,3.88720244 L11.8884073,3.36271463 C11.8884073,1.43962683 10.4897561,0.0409756098 8.56661707,0.0409756098 C6.81834146,0.0409756098 5.24487805,1.43962683 5.24487805,3.36271463 L5.24487805,3.88720244 L3.32173902,3.88720244 C1.39865122,3.88720244 0,5.46066585 0,7.20899268 L0,38.678261 C0,40.4265366 1.39865122,42 3.32173902,42 L38.6372854,42 C40.385561,42 41.9590244,40.6013488 41.9590244,38.678261 L41.9590244,7.20899268 C41.9590244,5.46066585 40.5603732,3.88720244 38.6372854,3.88720244 L38.6372854,3.88720244 Z M31.2944561,3.36271463 C31.2944561,2.31373902 32.1685683,1.43962683 33.2175439,1.43962683 C34.2665195,1.43962683 35.1406829,2.31373902 35.1406829,3.36271463 L35.1406829,9.13208049 C35.1406829,10.1810561 34.2665195,11.0552195 33.2175439,11.0552195 C32.1685683,11.0552195 31.2944561,10.1810561 31.2944561,9.13208049 L31.2944561,3.36271463 L31.2944561,3.36271463 Z M6.64352927,3.36271463 C6.64352927,2.31373902 7.51764146,1.43962683 8.56661707,1.43962683 C9.61559268,1.43962683 10.4897561,2.31373902 10.4897561,3.36271463 L10.4897561,9.13208049 C10.4897561,10.1810561 9.61559268,11.0552195 8.56661707,11.0552195 C7.51764146,11.0552195 6.64352927,10.1810561 6.64352927,9.13208049 L6.64352927,3.36271463 L6.64352927,3.36271463 Z M38.6372854,39.377561 L3.32173902,39.377561 C2.97211463,39.377561 2.62243902,39.0278854 2.62243902,38.678261 L2.62243902,15.6007976 L39.3365854,15.6007976 L39.3365854,38.678261 C39.3365854,39.0278854 38.9869098,39.377561 38.6372854,39.377561 L38.6372854,39.377561 Z" id="Fill-1"></path>
            <polygon id="Fill-2" points="7.51764146 23.2932512 13.6366829 23.2932512 13.6366829 20.3211878 7.51764146 20.3211878"></polygon>
            <polygon id="Fill-3" points="18.0073976 23.2932512 23.9516268 23.2932512 23.9516268 20.3211878 18.0073976 20.3211878"></polygon>
            <polygon id="Fill-4" points="28.4971537 23.2932512 34.4413829 23.2932512 34.4413829 20.3211878 28.4971537 20.3211878"></polygon>
            <polygon id="Fill-5" points="7.51764146 29.2374805 13.6366829 29.2374805 13.6366829 26.2653659 7.51764146 26.2653659"></polygon>
            <polygon id="Fill-6" points="18.0073976 29.2374805 23.9516268 29.2374805 23.9516268 26.2653659 18.0073976 26.2653659"></polygon>
            <polygon id="Fill-7" points="28.4971537 29.2374805 34.4413829 29.2374805 34.4413829 26.2653659 28.4971537 26.2653659"></polygon>
            <polygon id="Fill-8" points="7.51764146 35.3564707 13.6366829 35.3564707 13.6366829 32.2095439 7.51764146 32.2095439"></polygon>
            <polygon id="Fill-9" points="18.0073976 35.3564707 23.9516268 35.3564707 23.9516268 32.2095439 18.0073976 32.2095439"></polygon>
            <polygon id="Fill-10" points="28.4971537 35.3564707 34.4413829 35.3564707 34.4413829 32.2095439 28.4971537 32.2095439"></polygon>
        </g>
    </g>
</svg>